<?xml version="1.0" encoding="UTF-8"?>
<svg id="Layer_1" xmlns="http://www.w3.org/2000/svg" version="1.1" viewBox="0 0 128 128">
  <!-- Generator: Adobe Illustrator 29.0.1, SVG Export Plug-In . SVG Version: 2.1.0 Build 192)  -->
  <defs>
    <style>
      .st0 {
        fill: #81c144;
      }

      .st1 {
        fill: #f68837;
      }

      .st2 {
        fill: #fbfdfb;
      }

      .st3 {
        fill: #80c144;
      }
    </style>
  </defs>
  <rect class="st2" x="0" width="128" height="128" rx="8" ry="8"/>
  <g>
    <path class="st0" d="M76.5,9.7c-.6,0-1.2.1-1.8.2-.9-1.3-2.7-2.2-4.7-2.1-1.3,0-2.5.5-3.4,1.2-.8-2.2-3.3-3.7-6.3-3.5-2.7.1-4.9,1.5-5.9,3.4-.8-.2-1.7-.2-2.6-.2-5,.2-9,3.6-8.9,7.5,0,1.3.5,2.6,1.3,3.6-.7.7-1.1,1.6-1.1,2.6,0,1.3.9,2.5,2.1,3.2-.5,1-.8,2.1-.8,3.3.9,6.7,6.7,7.5,7.3,7.5,5.2.6,10,8.2,10,8.2,0,0,2,2.3,4-.1,0,0,5-8.6,11.3-10.5.4,0,.4,0,.7-.1,4.4-.8,5.2-2.4,5.2-5.8,0-1.7-.9-3.2-2.3-4.2,2.7-1.4,4.5-4,4.4-6.9,0-4.2-3.9-7.4-8.5-7.2h0ZM57.3,36.3c1.5.5,4.2.8,6.1.9-.1,1-.6,3.4-.5,4.8-1.3-1.8-5.7-5.6-5.6-5.7ZM64.7,42.7c.2-1.7.3-3.6.9-5.7,1.8-.3,3.7-.9,5.2-1.7-2.2,1.7-4.7,4-6,7.3Z"/>
    <path class="st1" d="M79.7,45.3h0c-15.7-3.2-30.8-.1-30.8-.1h0c-.5,0-.8.5-.7,1l15.4,66.2c0,.4.7.4.8,0l16-66.1c.1-.5-.2-.9-.7-1Z"/>
    <path class="st3" d="M71.9,106.5l-1.2,4c9.1.7,13.9,2.7,14.5,3.7-.7,1.2-7.7,4.1-21.2,4.1-13.4,0-20.4-2.7-21.2-4,.6-1,5.3-3.1,14.3-3.8l-1.1-4c-8.6.8-17.7,3-17.7,7.9,0,6.5,16.2,8.1,25.7,8.1,9.5,0,25.7-1.8,25.7-8.3,0-4.9-9.2-7-17.8-7.7Z"/>
  </g>
</svg>