<?xml version="1.0" encoding="UTF-8"?>
<svg id="logo" xmlns="http://www.w3.org/2000/svg" version="1.1" viewBox="0 0 242.1 80">
  <!-- Generator: Adobe Illustrator 29.0.1, SVG Export Plug-In . SVG Version: 2.1.0 Build 192)  -->
  <defs>
    <style>
      .st0 {
        fill: #80c144;
      }

      .st1 {
        fill: #81c145;
      }

      .st2 {
        fill: #f68837;
      }
    </style>
  </defs>
  <path class="st1" d="M119.5,4.4h-1.2c-.5-1-1.6-1.8-3-1.9-.9,0-1.8.1-2.4.5-.3-1.6-1.9-2.8-4-3-1.8-.2-3.5.6-4.3,1.8-.6-.2-1.2-.3-1.8-.4-3.4-.3-6.4,1.6-6.8,4.3-.1.9.1,1.8.6,2.5-.5.5-.9,1-1,1.7-.1.9.4,1.8,1.2,2.3-.5.7-.8,1.4-.8,2.1,0,4.6,3.8,5.7,4.2,5.8,3.5.8,6.1,6.5,6.1,6.5,0,0,1.2,1.7,2.7.3,0,0,4.2-5.4,8.7-6.1h.5c3.1,0,3.8-1.1,4-3.5s-.3-2.3-1.2-3.1c2-.7,3.4-2.3,3.6-4.3.3-2.8-2-5.3-5.1-5.7h0ZM104,20.7c1,.5,2.8,1,4,1.2-.2.7-.7,2.3-.8,3.3-.7-1.4-3.3-4.4-3.3-4.4h0ZM108.4,25.7c.3-1.1.5-2.4,1.1-3.8,1.3,0,2.6-.3,3.6-.7-1.6,1-3.6,2.3-4.8,4.4Z"/>
  <path class="st1" d="M28.6,35.1l-4.7,28.4h-5.2l-9.4-17.9h-.2l-3,17.9H0l4.7-28.4h5.3l9.3,17.8h.3l2.9-17.8h6Z"/>
  <path class="st1" d="M38.4,64c-2.1,0-4-.5-5.4-1.4s-2.4-2.2-3-3.9c-.6-1.7-.7-3.6-.3-5.8s1.1-4.1,2.2-5.7,2.5-2.9,4.2-3.8,3.6-1.4,5.8-1.4,4,.5,5.4,1.4c1.4.9,2.4,2.2,3,3.9s.7,3.6.3,5.8c-.4,2.1-1.1,4.1-2.2,5.7-1.1,1.6-2.5,2.9-4.2,3.8s-3.6,1.4-5.7,1.4h0ZM39,59.3c1,0,1.9-.3,2.7-.8.8-.6,1.4-1.4,1.9-2.3s.8-2.1,1.1-3.4c.2-1.2.2-2.3,0-3.3-.2-1-.5-1.7-1.1-2.3s-1.3-.8-2.3-.8-1.9.3-2.7.8-1.4,1.4-2,2.3-.8,2.1-1,3.4c-.2,1.2-.2,2.3,0,3.3s.5,1.7,1.1,2.3c.6.5,1.3.8,2.3.8Z"/>
  <path class="st1" d="M67.9,54.5l2-12.2h5.9l-3.5,21.3h-5.7l.7-3.8h-.2c-.7,1.2-1.6,2.3-2.9,3-1.2.8-2.7,1.2-4.3,1.2s-2.6-.3-3.6-1-1.7-1.6-2.1-2.7c-.4-1.2-.5-2.6-.2-4.3l2.3-13.5h5.9l-2.1,12.5c-.2,1.2,0,2.3.5,3s1.4,1.1,2.5,1.1,1.4-.1,2.1-.5c.7-.3,1.2-.8,1.8-1.4.5-.7.8-1.4,1-2.4h-.1Z"/>
  <path class="st1" d="M77,63.5l3.5-21.3h5.7l-.7,3.7h.2c.6-1.3,1.4-2.3,2.5-3s2.1-1,3.3-1,.6,0,.9,0,.7,0,.9.1l-.9,5.3c-.3,0-.7-.2-1.1-.2s-.9,0-1.4,0c-.8,0-1.7.2-2.4.6-.7.4-1.4.9-1.9,1.6-.5.7-.8,1.4-1,2.3l-2,12h-5.9.2Z"/>
  <path class="st1" d="M134,48.3l-5.4.3c0-.5-.1-.9-.4-1.2-.3-.4-.6-.7-1-.9-.5-.2-1-.3-1.6-.3-1,0-1.8.2-2.6.7s-1.2,1-1.3,1.7c0,.5,0,.8.3,1.1.3.3,1,.6,1.9.8l3.8.8c2,.5,3.5,1.1,4.4,2.1.9,1,1.2,2.3.9,3.9-.3,1.4-.8,2.5-1.8,3.6s-2.2,1.8-3.6,2.3c-1.5.6-3.1.8-4.9.8-2.9,0-5.1-.6-6.6-1.8-1.5-1.2-2.2-2.8-2.2-4.8l5.8-.3c0,.8.3,1.5.9,2s1.4.7,2.3.7,2-.2,2.8-.7,1.2-1,1.3-1.8c0-.5,0-.8-.4-1.2s-1-.5-1.9-.7l-3.5-.7c-2-.5-3.5-1.2-4.4-2.2-.9-1.1-1.2-2.4-.9-4.1.3-1.4.8-2.5,1.7-3.4.9-1,2-1.7,3.4-2.2s3-.8,4.8-.8c2.7,0,4.8.6,6.3,1.7,1.4,1.2,2.1,2.7,2,4.6h0Z"/>
  <path class="st1" d="M143.7,51.3l-2,12.3h-5.9l4.7-28.4h5.7l-1.8,10.9h.3c.7-1.2,1.6-2.2,2.8-3,1.2-.7,2.6-1.1,4.2-1.1s2.7.3,3.7,1,1.7,1.6,2.1,2.7.5,2.6.2,4.3l-2.3,13.5h-5.9l2.1-12.5c.2-1.3,0-2.3-.5-3.1s-1.4-1.1-2.6-1.1-1.6.2-2.2.5-1.2.8-1.7,1.5c-.5.7-.8,1.4-.9,2.3h0Z"/>
  <path class="st2" d="M165.6,35.2h7.4l4.7,19.1h.3l11-19.1h7.4l-4.7,28.4h-5.9l3.1-18.5h-.3l-10.4,18.4h-4l-4.3-18.4h-.3l-3.1,18.6h-5.8l4.7-28.4h0Z"/>
  <path class="st2" d="M202.5,64c-1.4,0-2.5-.3-3.5-.7s-1.7-1.2-2.1-2.1-.6-2.1-.3-3.5c.2-1.2.6-2.1,1.2-3s1.3-1.4,2.1-2,1.8-.8,2.7-1.1c1-.3,2-.5,3.1-.5,1.2-.1,2.3-.3,3.1-.4s1.4-.3,1.8-.5c.4-.2.7-.6.7-1h0c.1-1,0-1.6-.5-2.1-.5-.5-1.2-.7-2.2-.7s-2,.2-2.7.7-1.2,1-1.6,1.8l-5.4-.5c.5-1.3,1.2-2.4,2.2-3.4s2.1-1.7,3.5-2.2,2.9-.8,4.6-.8,2.3.1,3.3.4,2,.7,2.7,1.3c.8.6,1.3,1.3,1.6,2.2s.4,2,.2,3.3l-2.4,14.4h-5.6l.5-2.9h-.1c-.5.7-1,1.2-1.7,1.8-.7.5-1.4.9-2.3,1.2s-1.8.5-2.9.5h0ZM204.9,59.9c.8,0,1.6-.2,2.3-.5s1.3-.8,1.8-1.4c.5-.6.8-1.2.9-2l.3-2.3c-.2.1-.5.2-.8.3s-.7.2-1.1.3-.8.1-1.2.2c-.4,0-.8.1-1.1.2-.7.1-1.4.3-1.9.5s-1,.5-1.4.9-.6.8-.7,1.4c-.1.8,0,1.4.6,1.8.5.5,1.2.7,2.1.7h0Z"/>
  <path class="st2" d="M217.9,71.6l4.9-29.3h5.9l-.6,3.6h.3c.3-.6.8-1.2,1.4-1.8s1.3-1.1,2.2-1.5c.8-.4,1.9-.6,3.1-.6s2.9.4,4.1,1.2,2,2,2.5,3.6.6,3.6.2,6.1c-.4,2.4-1.1,4.4-2.1,6-1,1.6-2.3,2.9-3.7,3.7s-3,1.2-4.6,1.2-2.1-.2-2.9-.6-1.3-.8-1.7-1.4-.7-1.2-.8-1.8h-.2l-1.9,11.4h-6.1ZM226.7,52.9c-.2,1.2-.2,2.3,0,3.3.2.9.6,1.7,1.2,2.2s1.4.8,2.3.8,1.8-.3,2.5-.8c.7-.5,1.4-1.2,1.9-2.2s.8-2,1-3.3c.2-1.2.2-2.3,0-3.3s-.6-1.7-1.2-2.2-1.4-.8-2.3-.8-1.8.3-2.6.8-1.4,1.2-1.9,2.1-.8,2-1,3.3h.1Z"/>
  <path class="st2" d="M117.9,28.5h0c-10.4-3.6-21-2.9-21-2.9h0c-.3,0-.6.3-.6.7l4.4,46.6c0,.3.4.3.5,0l17-43.6c.1-.3,0-.7-.4-.8h0Z"/>
  <path class="st0" d="M107,69.2l-1.2,2.7c6.2,1.1,9.3,2.9,9.7,3.6-.6.8-5.6,2.2-14.8,1.3-9.2-.9-13.8-3.4-14.2-4.2.5-.7,3.8-1.7,10-1.6l-.5-2.9c-5.9,0-12.3.8-12.6,4.1-.5,4.4,10.5,6.7,17,7.4s17.7.7,18.2-3.8c.3-3.3-5.8-5.5-11.7-6.6h0Z"/>
</svg>